<svg xmlns="http://www.w3.org/2000/svg" viewBox="0 0 512 512" width="512" height="512">
  <!-- talksibi app icon v9c LIGHT: bubble mark scaled to fill a rounded-square app tile.
       White backdrop, bubble at 60% of tile with safe-area padding. -->
  <rect width="512" height="512" rx="112" fill="#ffffff"/>
  <g transform="translate(96,96) scale(6.956)">
    <!-- 46*6.956 ≈ 320 → mark occupies center 320x320 of the 512 tile. -->
    <path d="M13,0 H33 A13,13 0 0 1 46,13 V30 A13,13 0 0 1 33,43 L11,46 A3,3 0 0 1 8,43 L8,42.6 A13,13 0 0 1 0,30 V13 A13,13 0 0 1 13,0 Z" fill="#5B6CFF"/>
    <circle cx="15" cy="21" r="3" fill="#ffffff"/>
    <circle cx="23" cy="21" r="3" fill="#ffffff"/>
    <circle cx="31" cy="21" r="3" fill="#ffffff"/>
  </g>
</svg>
